<svg width="155" height="41" viewBox="0 0 155 41" fill="none" xmlns="http://www.w3.org/2000/svg">
<g clip-path="url(#clip0_257_593)">
<path d="M71.1236 10.1361C70.4866 10.9333 70.062 12.1292 70.062 13.1542C70.062 13.9514 70.1469 14.7487 70.6989 16.0014C72.7371 20.6708 79.2338 24.3153 80.8473 25.625C82.0362 26.5931 83.0129 28.0167 83.3526 30.1806C83.6498 27.732 83.7347 25.1125 83.2252 23.5181C82.5882 21.525 81.6965 20.4431 80.3802 19.4751C78.2571 17.9376 75.2424 15.6028 72.9494 12.8125C72.1426 11.9583 71.4633 11.1042 71.1236 10.1361Z" fill="url(#paint0_linear_257_593)"/>
<path d="M76.2614 5.80831C74.8177 7.00414 72.7371 8.02914 71.166 10.1361C70.4866 10.9333 70.062 12.1291 70.062 13.1541C70.062 13.9514 70.1469 14.7486 70.6989 16.0014C70.6989 15.0333 71.4208 13.5528 72.822 12.4708C74.3082 11.275 76.8559 9.62358 78.427 7.23192C79.4036 5.75136 78.8091 3.92913 77.6202 3.47357C77.875 4.49857 76.771 5.35274 76.2614 5.80831Z" fill="url(#paint1_linear_257_593)"/>
<path d="M74.8176 1.65139C74.0958 2.10694 73.2041 2.67639 72.3973 3.47361C72.3124 3.53056 72.2699 3.64444 72.185 3.70139C71.7604 4.15694 71.4631 4.84028 71.3358 5.6375C71.2508 6.37778 71.3358 7.28889 71.7179 8.08611C71.7604 8.14305 71.8028 8.25694 71.8453 8.31389C71.8878 7.11805 72.5671 6.26389 73.6712 5.52361C74.7752 4.72639 75.7942 3.75833 76.4312 2.90417C77.1955 1.82222 76.5586 0.170833 75.8367 0C76.0066 0.854167 75.3272 1.36667 74.8176 1.65139Z" fill="url(#paint2_linear_257_593)"/>
<path d="M78.4269 10.4208C76.1339 12.6986 71.633 15.5458 69.5524 18.7347C69.5524 18.7347 69.5524 18.7917 69.5099 18.7917C68.1511 21.3542 68.236 23.4611 69.1277 25.3403C69.1277 24.3722 70.1893 23.0056 71.5905 21.525C74.0533 18.8486 78.4269 16.4569 80.8897 12.1861C81.7814 10.6486 81.1869 8.14305 79.8706 7.45972C80.1678 8.42777 79.361 9.45277 78.4269 10.4208Z" fill="url(#paint3_linear_257_593)"/>
<path d="M93.0893 11.3889V15.0496H93.4159V17.0834H92.1908V16.2699H90.3947V17.0834H89.1697V15.0496H89.4962C89.7412 14.4395 89.8227 13.7277 89.8227 12.6092V11.3889H93.0893ZM91.0478 12.5075V13.0159C91.0478 13.8294 90.9662 14.5412 90.7212 15.0496H91.7828V12.5075H91.0478Z" fill="#0767B0"/>
<path d="M96.3628 11.3889L97.6621 16.5139H96.5157L96.3628 15.8597H95.1399L94.987 16.5139H93.8406L95.1399 11.3889H96.3628ZM96.1335 14.7693L95.7514 12.9155L95.3692 14.7693H96.1335Z" fill="#0767B0"/>
<path d="M101.908 11.3889V16.4071H100.738V12.5634H99.8803V13.9514C99.8803 15.9801 99.4123 16.5139 98.7104 16.5139C98.4765 16.5139 98.3206 16.5139 98.0867 16.4071V15.2327C98.1648 15.2327 98.2425 15.2327 98.3988 15.2327C98.6327 15.2327 98.7886 15.1259 98.7886 13.9514V11.3889H101.908Z" fill="#0767B0"/>
<path d="M103.789 13.1336H104.426C105.518 13.1336 106.155 13.6788 106.155 14.8783C106.155 15.9687 105.518 16.5139 104.335 16.5139H102.333V11.3889H103.698V13.1336H103.789ZM103.789 15.2054H104.335C104.699 15.2054 104.972 15.0963 104.972 14.7693C104.972 14.3331 104.608 14.3331 104.244 14.3331H103.88V15.2054H103.789Z" fill="#0767B0"/>
<path d="M107.853 13.2426H109.127V11.3889H110.401V16.5139H109.127V14.4421H107.853V16.5139H106.579V11.3889H107.853V13.2426Z" fill="#0767B0"/>
<path d="M114.647 11.3889V12.5884H112.393V13.3517H114.255V14.5512H112.393V15.3144H114.647V16.5139H110.825V11.3889H114.647Z" fill="#0767B0"/>
<path d="M115.072 11.3889H117.027C118.004 11.3889 118.715 11.607 118.715 12.6974C118.715 13.2426 118.449 13.5698 118.182 13.7879C118.626 13.8969 118.893 14.4421 118.893 14.9873C118.893 16.1868 118.182 16.5139 117.116 16.5139H115.072V11.3889ZM116.405 13.4607H116.938C117.204 13.4607 117.382 13.3517 117.382 13.0245C117.382 12.5884 117.116 12.5884 116.849 12.5884H116.405V13.4607ZM116.405 15.3144H117.027C117.382 15.3144 117.649 15.2054 117.649 14.8783C117.649 14.4421 117.294 14.4421 116.938 14.4421H116.494V15.3144H116.405Z" fill="#0767B0"/>
<path d="M123.139 13.9022C123.139 15.5737 122.298 16.5139 121.228 16.5139C120.082 16.5139 119.318 15.5737 119.318 13.9022C119.318 12.3352 120.082 11.395 121.228 11.395C122.528 11.2906 123.139 12.5442 123.139 13.9022ZM120.541 13.9022C120.541 14.5291 120.693 15.3648 121.228 15.3648C121.763 15.3648 121.916 14.738 121.916 13.9022C121.916 13.2754 121.687 12.5442 121.228 12.5442C120.693 12.5442 120.541 13.2754 120.541 13.9022Z" fill="#0767B0"/>
<path d="M126.166 13.4389C126.166 12.9264 125.841 12.6189 125.515 12.6189C125.108 12.6189 124.783 13.1314 124.783 14.0539C124.783 14.7714 124.865 15.3864 125.515 15.3864C125.922 15.3864 126.084 15.0789 126.166 14.5664H127.385C127.304 15.7964 126.572 16.5139 125.596 16.5139C124.295 16.5139 123.564 15.4889 123.564 13.9514C123.564 12.4139 124.377 11.3889 125.434 11.3889C126.572 11.3889 127.223 12.1064 127.385 13.3364H126.166V13.4389Z" fill="#0767B0"/>
<path d="M130.387 16.5139H129.054V12.5884H127.81V11.3889H131.632V12.5884H130.387V16.5139Z" fill="#0767B0"/>
<path d="M135.878 13.9022C135.878 15.5737 135.037 16.5139 133.967 16.5139C132.82 16.5139 132.056 15.5737 132.056 13.9022C132.056 12.3352 132.82 11.395 133.967 11.395C135.266 11.2906 135.878 12.5442 135.878 13.9022ZM133.279 13.9022C133.279 14.5291 133.432 15.3648 133.967 15.3648C134.502 15.3648 134.655 14.738 134.655 13.9022C134.655 13.2754 134.426 12.5442 133.967 12.5442C133.432 12.5442 133.279 13.2754 133.279 13.9022Z" fill="#0767B0"/>
<path d="M137.636 11.6025V12.8837C137.636 13.3108 137.813 13.4176 138.168 13.4176C138.435 13.4176 138.702 13.4176 138.791 13.3108V11.3889H140.124V16.5139H138.791V14.4853C138.524 14.592 138.346 14.592 137.636 14.592C137.013 14.592 136.302 14.165 136.302 12.9905V11.3889H137.636V11.6025Z" fill="#0767B0"/>
<path d="M141.878 13.2426H143.041V11.3889H144.37V16.5139H143.041V14.4421H141.878V16.5139H140.549V11.3889H141.878V13.2426Z" fill="#0767B0"/>
<path d="M146.078 13.1786H146.72C147.747 13.1786 148.389 13.7481 148.389 14.887C148.389 16.0258 147.747 16.5139 146.72 16.5139H144.795V11.3889H146.142V13.1786H146.078ZM146.078 15.2937H146.592C146.913 15.2937 147.17 15.2123 147.17 14.8056C147.17 14.3175 146.849 14.3175 146.463 14.3175H146.142V15.2937H146.078ZM150.315 16.5139H148.967V11.3889H150.315V16.5139Z" fill="#0767B0"/>
<path d="M154.561 11.5396V16.5139H153.287V14.994L153.372 13.7781L151.928 16.5139H150.739V11.5396H151.376H152.013V13.2714L151.928 14.4874L153.372 11.5396H154.561ZM152.14 10.25C152.14 10.6553 152.48 10.6553 152.735 10.6553C153.075 10.6553 153.245 10.554 153.245 10.25H153.669C153.669 10.9593 153.16 11.2633 152.65 11.2633C152.056 11.2633 151.716 10.9593 151.631 10.25H152.14Z" fill="#0767B0"/>
<path d="M92.5615 19.3611V19.9216H92.894C94.091 19.9216 94.6897 20.8025 94.6897 21.8435C94.6897 22.9646 94.1577 23.7654 92.9607 23.7654H92.6282V24.4861H91.2312V23.7654H90.8987C89.7017 23.7654 89.1697 22.9646 89.1697 21.8435C89.1697 20.8025 89.7017 19.9216 90.9654 19.9216H91.2979V19.3611H92.5615ZM91.165 21.1228H90.9654C90.5662 21.1228 90.3667 21.363 90.3667 21.8435C90.3667 22.2439 90.5 22.5642 90.8987 22.5642H91.165V21.1228ZM92.5615 22.4841H92.8273C93.1602 22.4841 93.3594 22.1638 93.3594 21.7635C93.3594 21.283 93.1602 21.0427 92.7611 21.0427H92.5615V22.4841Z" fill="#0767B0"/>
<path d="M98.8626 19.3611V20.5H96.5845V21.2321H98.4953V22.4524H96.5845V23.2658H98.9361V24.4861H95.1145V19.3611H98.8626Z" fill="#0767B0"/>
<path d="M103.237 19.3611V23.1574H103.607V25.0555H102.376V24.3437H100.592V25.0555H99.3606V23.1574H99.6684C99.9143 22.4456 100.037 21.7338 100.037 20.6265V19.3611H103.237ZM101.207 20.4683V21.022C101.207 21.8129 101.145 22.6037 100.899 23.1574H102.007V20.4683H101.207Z" fill="#0767B0"/>
<path d="M107.709 19.3611V20.5H105.546V21.2321H107.42V22.4524H105.546V23.2658H107.853V24.4861H104.031V19.3611H107.709Z" fill="#0767B0"/>
<path d="M109.686 24.4861H108.278V19.3611H110.289C111.496 19.3611 112.099 20.0119 112.099 21.0694C112.099 22.2083 111.563 22.8591 110.356 22.8591H109.686V24.4861ZM109.686 21.6389H110.289C110.624 21.6389 110.825 21.4762 110.825 21.0694C110.825 20.5813 110.356 20.5 110.088 20.5H109.686V21.6389Z" fill="#0767B0"/>
<path d="M114.589 19.3611L115.921 24.4861H114.705L114.589 23.8353H113.373L113.257 24.4861H112.099L113.431 19.3611H114.589ZM114.357 22.6964L113.952 20.8254L113.604 22.6964H114.357Z" fill="#0767B0"/>
<path d="M120.167 19.3611V24.406H118.969V20.4821H118.113V21.9236C118.113 23.9255 117.657 24.4861 116.973 24.4861C116.744 24.4861 116.573 24.4861 116.345 24.406V23.2048C116.402 23.2048 116.459 23.2849 116.631 23.2849C116.859 23.2849 116.973 23.1248 116.973 21.9236V19.3611H120.167Z" fill="#0767B0"/>
<path d="M121.956 21.1508H122.639C123.731 21.1508 124.413 21.7202 124.413 22.8591C124.413 23.998 123.731 24.4861 122.639 24.4861H120.592V19.3611H122.025V21.1508H121.956ZM121.956 23.2658H122.502C122.844 23.2658 123.116 23.1845 123.116 22.7778C123.116 22.2897 122.775 22.2897 122.366 22.2897H122.025V23.2658H121.956Z" fill="#0767B0"/>
<path d="M126.112 21.1508H127.385V19.3611H128.659V24.4861H127.385V22.2897H126.112V24.4861H124.838V19.3611H126.112V21.1508Z" fill="#0767B0"/>
<path d="M130.367 21.1508H131.009C132.036 21.1508 132.678 21.7202 132.678 22.8591C132.678 23.998 132.036 24.4861 131.009 24.4861H129.084V19.3611H130.431V21.1508H130.367ZM130.367 23.2658H130.881C131.202 23.2658 131.459 23.1845 131.459 22.7778C131.459 22.2897 131.138 22.2897 130.752 22.2897H130.431V23.2658H130.367ZM134.604 24.4861H133.256V19.3611H134.604V24.4861Z" fill="#0767B0"/>
<path d="M138.85 19.5119V24.4861H137.576V22.9662L137.661 21.7503L136.217 24.4861H135.029V19.5119H135.665H136.302V21.2436L136.217 22.4596L137.661 19.5119H138.85ZM136.43 18.2222C136.43 18.6276 136.77 18.6276 137.024 18.6276C137.364 18.6276 137.534 18.5263 137.534 18.2222H137.958C137.958 18.9315 137.449 19.2355 136.939 19.2355C136.345 19.2355 136.005 18.9315 135.92 18.2222H136.43Z" fill="#0767B0"/>
<path d="M90.6257 27.3333L91.2928 29.3101L91.9598 27.3333H93.4159L91.8995 31.2137C91.5352 32.0922 91.1713 32.4583 90.686 32.4583C90.4435 32.4583 90.2011 32.3851 90.0796 32.3119V31.2137C90.1404 31.2137 90.2011 31.2869 90.3828 31.2869C90.5042 31.2869 90.6257 31.2137 90.686 30.994L89.1697 27.3333H90.6257Z" fill="#0767B0"/>
<path d="M95.1144 29.1422H96.3305V27.3333H97.6621V32.4583H96.3305V30.348H95.1144V32.4583H93.8406V27.3333H95.1144V29.1422Z" fill="#0767B0"/>
<path d="M101.908 27.3333V32.4583H100.673V30.8756L100.732 29.519L99.3215 32.4583H98.0867V27.3333H99.3215V28.9914L99.2624 30.2727L100.732 27.3333H101.908Z" fill="#0767B0"/>
<path d="M102.395 27.3333H104.367C105.292 27.3333 106.031 27.6304 106.031 28.596C106.031 29.1159 105.723 29.4873 105.476 29.7101C105.908 29.8587 106.155 30.3043 106.155 30.8985C106.155 32.0127 105.415 32.4583 104.367 32.4583H102.333V27.3333H102.395ZM103.751 29.3387H104.305C104.552 29.3387 104.798 29.1902 104.798 28.8931C104.798 28.5217 104.552 28.5217 104.244 28.5217H103.751V29.3387ZM103.751 31.1956H104.367C104.675 31.1956 104.983 31.1214 104.983 30.75C104.983 30.3043 104.675 30.3043 104.244 30.3043H103.812V31.1956H103.751Z" fill="#0767B0"/>
<path d="M110.401 27.3333V28.5392H108.081V29.2929H109.991V30.4987H108.081V31.2525H110.401V32.4583H106.579V27.3333H110.401Z" fill="#0767B0"/>
<path d="M112.181 32.4583H110.825V27.3333H112.859C114.092 27.3333 114.647 28.0116 114.647 29.0668C114.647 30.1973 114.092 30.8756 112.921 30.8756H112.243V32.4583H112.181ZM112.181 29.6697H112.736C113.044 29.6697 113.291 29.519 113.291 29.0668C113.291 28.6146 112.859 28.5392 112.551 28.5392H112.181V29.6697Z" fill="#0767B0"/>
<path d="M117.769 29.3264C117.713 28.8281 117.488 28.5434 117.095 28.5434C116.645 28.5434 116.364 29.0416 116.364 29.967C116.364 30.6788 116.477 31.3194 117.095 31.3194C117.488 31.3194 117.713 30.9635 117.713 30.4653H118.893C118.781 31.7465 118.05 32.4583 117.095 32.4583C115.858 32.4583 115.072 31.4618 115.072 29.8958C115.072 28.3298 115.914 27.3333 116.982 27.3333C118.162 27.3333 118.781 28.0451 118.893 29.3264H117.769Z" fill="#0767B0"/>
<path d="M123.139 27.3333V32.4583H121.865V30.8756L121.981 29.519L120.534 32.4583H119.318V27.3333H120.591V28.9914L120.476 30.2727L121.923 27.3333H123.139Z" fill="#0767B0"/>
<path d="M126.508 32.4583H124.934V28.5392H123.564V27.3333H127.81V28.5392H126.508V32.4583Z" fill="#0767B0"/>
<path d="M132.056 27.3333V28.5392H129.71V29.2929H131.587V30.4987H129.71V31.2524H132.056V32.4583H128.235V27.3333H132.056Z" fill="#0767B0"/>
<path d="M135.07 32.4583H133.713V28.5392H132.481V27.3333H136.302V28.5392H135.07V32.4583Z" fill="#0767B0"/>
<path d="M14.4321 11.3889V25.8892H15.7109V32.4584H11.2046V30.2953H4.50621V32.4584H0V25.8892H1.157C2.13132 23.3256 2.43579 20.5217 2.43579 16.2757V11.3889H14.4321ZM6.94199 15.795V17.878C6.94199 21.0023 6.69843 23.9665 5.78499 25.8892H9.74315V15.795H6.94199Z" fill="#0767B0"/>
<path d="M17.4094 11.3889H24.2665C27.5114 11.3889 30.0828 12.3485 30.0828 16.1068C30.0828 18.026 29.1032 19.4653 28.1848 20.185C29.7154 20.7448 30.5726 22.424 30.5726 24.5031C30.5726 28.7412 28.1236 30.1806 24.389 30.1806H17.4094V11.3889ZM22.1237 18.9056H24.0828C25.0012 18.9056 25.6747 18.3458 25.6747 17.2263C25.6747 15.787 24.7563 15.707 23.7767 15.707H22.1237V18.9056ZM22.1237 25.8625H24.2053C25.3685 25.8625 26.2257 25.5426 26.2257 24.1033C26.2257 22.424 25.1236 22.3441 23.6543 22.3441H22.1237V25.8625Z" fill="#0767B0"/>
<path d="M42.971 11.3889V13.548H44.0032C47.9603 13.548 49.6804 16.7465 49.6804 20.5848C49.6804 24.663 47.9029 27.6217 44.0606 27.6217H42.971V30.1806H38.5557V27.6217H37.4661C33.5667 27.6217 31.8464 24.663 31.8464 20.5848C31.8464 16.7465 33.6241 13.548 37.5235 13.548H38.5557V11.3889H42.971ZM38.5557 17.946H37.9823C36.606 17.946 36.0899 18.8256 36.0899 20.5848C36.0899 22.1841 36.606 23.2237 37.7529 23.2237H38.613V17.946H38.5557ZM42.971 23.2237H43.8313C44.9782 23.2237 45.4941 22.1841 45.4941 20.5848C45.4941 18.8256 44.9782 17.946 43.602 17.946H43.0283V23.2237H42.971Z" fill="#0767B0"/>
<path d="M54.9183 11.3889L57.2329 18.6032L59.4863 11.3889H64.5418L59.2426 25.6623C58.0248 28.9203 56.8065 30.0064 55.0401 30.1615C54.2482 30.2391 53.213 30.0839 51.9336 29.6185V25.4296C52.7867 25.6623 53.2737 25.7399 53.8219 25.6623C54.3094 25.5848 54.6745 25.352 54.9183 24.6538L49.6802 11.3889H54.9183Z" fill="#0767B0"/>
</g>
<defs>
<linearGradient id="paint0_linear_257_593" x1="83.8897" y1="20.7005" x2="69.6453" y2="20.0935" gradientUnits="userSpaceOnUse">
<stop stop-color="#004D88" stop-opacity="0"/>
<stop offset="0.12" stop-color="#188CCC"/>
<stop offset="0.2909" stop-color="#0668B3"/>
<stop offset="0.62" stop-color="#0859A5"/>
<stop offset="0.8412" stop-color="#214397"/>
<stop offset="1" stop-color="#2E3790"/>
</linearGradient>
<linearGradient id="paint1_linear_257_593" x1="78.8737" y1="16.5092" x2="67.1163" y2="6.78481" gradientUnits="userSpaceOnUse">
<stop stop-color="#71D0F6"/>
<stop offset="0.2992" stop-color="#40B5E7"/>
<stop offset="0.4" stop-color="#2FABE1"/>
<stop offset="0.4466" stop-color="#2FA1DA"/>
<stop offset="0.8254" stop-color="#2E55A5"/>
<stop offset="1" stop-color="#2E3790"/>
</linearGradient>
<linearGradient id="paint2_linear_257_593" x1="76.2537" y1="8.38905" x2="70.8732" y2="2.68575" gradientUnits="userSpaceOnUse">
<stop stop-color="#71D0F6"/>
<stop offset="0.2992" stop-color="#40B5E7"/>
<stop offset="0.4" stop-color="#2FABE1"/>
<stop offset="0.4466" stop-color="#2FA1DA"/>
<stop offset="0.8254" stop-color="#2E55A5"/>
<stop offset="1" stop-color="#2E3790"/>
</linearGradient>
<linearGradient id="paint3_linear_257_593" x1="80.8858" y1="26.1683" x2="64.4391" y2="11.8029" gradientUnits="userSpaceOnUse">
<stop stop-color="#71D0F6"/>
<stop offset="0.2992" stop-color="#40B5E7"/>
<stop offset="0.4" stop-color="#2FABE1"/>
<stop offset="0.4466" stop-color="#2FA1DA"/>
<stop offset="0.8254" stop-color="#2E55A5"/>
<stop offset="1" stop-color="#2E3790"/>
</linearGradient>
<clipPath id="clip0_257_593">
<rect width="154.561" height="41" fill="white"/>
</clipPath>
</defs>
</svg>
